<svg xmlns="http://www.w3.org/2000/svg" xmlns:xlink="http://www.w3.org/1999/xlink" fill="none" version="1.1" width="32" height="32" viewBox="0 0 32 32"><defs><clipPath id="master_svg0_1476_6867"><rect x="0" y="0" width="32" height="32" rx="0"/></clipPath></defs><g clip-path="url(#master_svg0_1476_6867)"><g><g><path d="M24.630443605041503,18.602539712524415C24.867043605041506,17.810439712524413,25.000743605041503,16.977229712524412,25.000743605041503,16.102869712524416C25.000743605041503,15.228509712524414,25.000743605041503,15.907429712524413,25.000743605041503,15.814849712524413C21.5547436050415,13.819259712524413,18.952243605041502,9.550339712524414,17.861843605041503,7.513597712524414C17.275543605041506,7.390159612524414,16.668623605041503,7.328439712524414,16.041143605041505,7.328439712524414C15.413663605041505,7.328439712524414,14.847903605041504,7.390158912524414,14.282143605041504,7.503310712524414C13.798673605041504,8.398239712524415,13.016893605041503,9.745779712524413,11.988243605041504,11.134459712524414C10.805293605041504,12.739169712524415,9.097723605041503,14.652469712524415,7.091843605041504,15.825129712524413C7.091843605041504,15.917709712524415,7.091843605041504,16.010289712524415,7.091843605041504,16.102869712524416C7.091843605041504,16.977229712524412,7.225569605041504,17.810439712524413,7.462159605041504,18.602539712524415C8.953713605041504,17.91333971252441,10.301253605041504,16.905219712524413,11.494483605041504,15.753129712524414C10.650993605041503,17.717839712524416,9.704623605041505,19.620839712524415,8.717113605041504,21.133039712524415C9.252023605041504,21.873639712524415,9.889783605041504,22.531939712524412,10.630413605041504,23.077139712524414C11.710503605041504,21.534139712524414,12.790593605041504,19.518039712524413,13.880973605041504,17.008089712524416C13.500363605041503,19.579739712524415,12.934603605041504,21.832439712524412,12.132253605041504,23.982339712524414C12.934603605041504,24.362939712524415,13.798673605041504,24.630439712524414,14.714183605041505,24.764139712524415C15.290233605041504,23.324039712524414,15.742833605041504,21.894239712524413,16.102863605041506,20.032339712524415C16.462893605041504,21.883939712524416,16.915503605041504,23.313739712524416,17.501843605041504,24.753839712524414C18.407043605041505,24.609839712524415,19.2711436050415,24.332139712524413,20.063143605041503,23.941239712524414C19.281443605041503,21.873639712524415,18.7362436050415,19.703139712524415,18.345343605041506,17.203529712524414C19.404843605041506,19.610539712524414,20.454043605041505,21.565039712524413,21.503343605041504,23.056539712524412C22.233643605041504,22.511439712524414,22.881743605041503,21.853039712524414,23.406343605041503,21.102139712524412C22.429143605041503,19.600339712524416,21.493043605041503,17.707539712524415,20.649543605041504,15.763419712524414C21.832443605041504,16.905229712524417,23.169743605041504,17.91333971252441,24.651043605041504,18.592239712524414L24.630443605041503,18.602539712524415Z" fill="#2130ED" fill-opacity="1" style="mix-blend-mode:passthrough"/></g><g><path d="M16,29.9897C8.28508,29.9897,2,23.7149,2,15.9897C2,8.26451,8.274799999999999,2,16,2C23.7252,2,30,8.274799999999999,30,16C30,23.7252,23.7252,30,16,30L16,29.9897ZM16,4.7568C9.80749,4.7568,4.7568,9.79721,4.7568,16C4.7568,22.2028,9.79721,27.2432,16,27.2432C22.2028,27.2432,27.2432,22.2028,27.2432,16C27.2432,9.79721,22.2028,4.7568,16,4.7568Z" fill="#2130ED" fill-opacity="1" style="mix-blend-mode:passthrough"/></g></g></g></svg>