<svg xmlns="http://www.w3.org/2000/svg" xmlns:xlink="http://www.w3.org/1999/xlink" fill="none" version="1.1" width="33" height="32" viewBox="0 0 33 32"><defs><clipPath id="master_svg0_1499_6717"><rect x="0" y="0" width="33" height="32" rx="0"/></clipPath></defs><g clip-path="url(#master_svg0_1499_6717)"><g><g><path d="M27.9342,13.94546C27.9104,13.81729,27.8807,13.69467,27.8332,13.57764C27.851,13.54979,31.7961,8.39523,28.1421,5.20775C24.4941,2.02027,20.2341,6.17736,20.2103,6.19966C19.5331,5.99902,18.8498,5.8764400000000006,18.1725,5.82073Q18.1725,5.82073,18.1665,5.82073Q16.7762,5.60339,14.8275,5.82073C14.1561,5.8764400000000006,13.4788,5.99902,12.8074,6.19406C12.7836,6.17176,8.52364,2.0146699999999997,4.87563,5.20215C1.227621,8.38964,5.16676,13.54979,5.18458,13.57209C5.143,13.69467,5.10735,13.81729,5.0835799999999995,13.93987C4.69145,16.1466,2,16.8264,2,20.6715C2,24.5889,4.8102800000000006,27.6761,10.54964,27.6761L12.9025,27.6761C12.9143,27.6873,13.8233,28.9021,15.7009,28.9745Q16.1345,29.0191,17.1327,28.9857C19.1231,28.9857,20.0915,27.6984,20.0975,27.6817L22.4503,27.6817C28.1896,27.6817,30.9999,24.5945,30.9999,20.6771C31.0177,16.837600000000002,28.3263,16.1521,27.9342,13.94546Z" fill="#FEB62C" fill-opacity="1" style="mix-blend-mode:passthrough"/></g><g><path d="M13.153797149658203,16.74518104522705L15.889637149658203,16.74518104522705L16.310527149658203,20.462551045227052L19.993387149658204,13.452671045227051L17.678447149658204,13.452671045227051L16.8366571496582,9.94775104522705L13.153797149658203,16.74518104522705Z" fill="#FFFFFF" fill-opacity="1"/></g></g></g></svg>