<svg xmlns="http://www.w3.org/2000/svg" xmlns:xlink="http://www.w3.org/1999/xlink" fill="none" version="1.1" width="99" height="16" viewBox="0 0 99 16"><defs><clipPath id="master_svg0_1499_6708"><rect x="0" y="0" width="99" height="16" rx="0"/></clipPath></defs><g clip-path="url(#master_svg0_1499_6708)"><g><path d="M19.96779,5.747310000000001Q20.07275,5.73232,20.28268,5.73232Q20.94243,5.73232,21.47473,6.10718Q22.00704,6.48204,22.32192,7.1493Q22.6368,7.8165,22.6368,8.6412Q22.6368,10.3506,21.10737,11.1828Q19.577939999999998,12.015,16.41411,12.015L14.13495,12.015L14.194928,1.09903Q14.734728,0.7691499999999998,15.85181,0.6417000000000002Q16.9689,0.5142500000000001,17.97353,0.5142500000000001Q18.903190000000002,0.5142500000000001,19.75787,0.87412Q20.61255,1.2339799999999999,21.14486,1.8487600000000004Q21.67716,2.4635300000000004,21.67716,3.2132500000000004Q21.67716,4.12791,21.20483,4.86264Q20.73251,5.59737,19.96779,5.747310000000001ZM18.903190000000002,3.6930699999999996Q18.903190000000002,3.28822,18.58081,3.03332Q18.25842,2.77841,17.74861,2.77841Q17.37375,2.77841,17.04387,2.9433499999999997L17.04387,4.65272Q17.22381,4.7127,17.47871,4.7127Q18.03351,4.7127,18.46835,4.41281Q18.903190000000002,4.11292,18.903190000000002,3.6930699999999996ZM17.65865,9.5709Q18.39337,9.5709,18.91068,9.181Q19.42799,8.7912,19.42799,8.2214Q19.42799,7.756600000000001,19.03814,7.4717Q18.64828,7.1868,18.078490000000002,7.1868Q17.5087,7.1868,17.04387,7.441700000000001L17.04387,9.4509Q17.32877,9.5709,17.65865,9.5709ZM26.8502,3.9479800000000003Q28.724600000000002,3.9479800000000003,29.7592,5.0425699999999996Q30.7938,6.137169999999999,30.7938,8.0265Q30.7938,8.3414,30.7788,8.5063L25.4708,8.5663Q25.6507,9.0611,25.973100000000002,9.3835Q26.2955,9.7058,26.7303,9.7358Q27.9298,9.8258,28.4696,9.0311L30.6139,9.6459Q30.4189,10.3506,29.8641,10.9129Q29.3093,11.4752,28.537100000000002,11.7901Q27.7649,12.105,26.9402,12.105Q26.7453,12.105,26.6403,12.09Q25.6057,12.015,24.7285,11.4152Q23.85136,10.8154,23.334049999999998,9.8408Q22.81674,8.8662,22.81674,7.711600000000001Q22.81674,7.486700000000001,22.83173,7.3667Q22.89171,6.377079999999999,23.43901,5.59737Q23.98631,4.81766,24.878500000000003,4.38282Q25.7706,3.9479800000000003,26.8502,3.9479800000000003ZM27.0002,5.80729Q25.8906,5.717320000000001,25.485799999999998,6.73695L28.0198,6.751939999999999Q27.9598,6.3171,27.6674,6.07719Q27.3751,5.83728,27.0002,5.80729ZM35.8769,3.9329799999999997Q36.401700000000005,3.9329799999999997,36.911500000000004,4.19539Q37.4213,4.45779,37.8112,4.93761L36.7766,7.261799999999999Q36.3417,6.66197,35.592,6.66197Q34.7823,6.66197,34.385000000000005,7.2393Q33.9876,7.8165,33.9276,9.1211L33.9276,12L31.1387,12L31.1387,4.00796L33.9276,4.00796L33.9276,4.6977Q34.332499999999996,4.33783,34.8498,4.13541Q35.3671,3.9329799999999997,35.8769,3.9329799999999997ZM43.2542,12L43.2392,11.2953Q42.8343,11.6401,42.2346,11.8501Q41.6348,12.06,41.004999999999995,12.06Q40.0154,12.06,39.1757,11.5127Q38.336,10.9654,37.8412,10.0357Q37.3464,9.1061,37.3464,7.996499999999999Q37.3464,6.8719,37.8562,5.94224Q38.366,5.01258,39.2582,4.48028Q40.1503,3.9479800000000003,41.2299,3.9479800000000003Q41.8147,3.9479800000000003,42.332,4.14291Q42.8493,4.33783,43.1642,4.68271L43.1642,4.03795L45.6533,4.03795L45.9982,12L43.2542,12ZM41.5148,9.5859Q41.9047,9.5859,42.2645,9.346Q42.6244,9.1061,42.8343,8.7087Q43.0443,8.3114,43.0443,7.8614999999999995Q43.0443,7.2468,42.6469,6.83441Q42.2495,6.42206,41.6498,6.42206Q40.989999999999995,6.42206,40.4952,6.886889999999999Q40.0004,7.351699999999999,40.0004,7.996499999999999Q40.0004,8.3863,40.2178,8.7612Q40.435199999999995,9.1361,40.7876,9.361Q41.14,9.5859,41.5148,9.5859ZM52.0859,6.76694Q51.4112,6.39207,50.8864,6.21964Q50.3615,6.0472,49.8817,6.0472Q49.4319,6.0472,49.1395,6.18215Q48.8471,6.3171,48.8471,6.52703Q48.8471,6.90189,49.8967,6.90189Q51.4262,6.90189,52.2808,7.5017Q53.1355,8.1014,53.1355,9.166Q53.1355,9.9757,52.6332,10.658Q52.1309,11.3402,51.2837,11.7451Q50.4365,12.1499,49.4319,12.1499Q48.4423,12.1499,47.5426,11.7826Q46.6429,11.4152,46.1181,10.8004L47.6326,9.0911Q47.9924,9.406,48.4573,9.5784Q48.9221,9.7508,49.4019,9.7508Q49.8667,9.7508,50.1891,9.5934Q50.5115,9.4359,50.5115,9.211Q50.5115,9.0311,50.3016,8.9561Q50.0916,8.8812,49.5968,8.8812Q49.5069,8.8961,49.3269,8.8961Q48.5772,8.8961,47.91,8.5588Q47.2427,8.2214,46.8379,7.6516Q46.433,7.081799999999999,46.433,6.42206Q46.433,5.73232,46.8978,5.1325400000000005Q47.3627,4.53276,48.1424,4.1654Q48.9221,3.79803,49.7918,3.79803Q50.6614,3.79803,51.5386,4.14291Q52.4158,4.48778,53.1355,5.102550000000001L52.0859,6.76694ZM65.431,3.9629700000000003L63.3917,12L60.5878,12L59.3732,7.8765L57.9487,12L54.6949,12L53.1055,4.02295L56.1644,3.9329799999999997L56.8991,7.2917000000000005L58.2336,4.00796L60.7077,3.99296L61.8323,7.3367L62.4021,3.9629700000000003L65.431,3.9629700000000003ZM71.0089,12L70.9939,11.2953Q70.5891,11.6401,69.9893,11.8501Q69.3895,12.06,68.75970000000001,12.06Q67.7701,12.06,66.93039999999999,11.5127Q66.0907,10.9654,65.5959,10.0357Q65.1011,9.1061,65.1011,7.996499999999999Q65.1011,6.8719,65.6109,5.94224Q66.1207,5.01258,67.0129,4.48028Q67.9051,3.9479800000000003,68.9847,3.9479800000000003Q69.5694,3.9479800000000003,70.0868,4.14291Q70.6041,4.33783,70.91890000000001,4.68271L70.91890000000001,4.03795L73.408,4.03795L73.7529,12L71.0089,12ZM69.2696,9.5859Q69.6594,9.5859,70.0193,9.346Q70.3791,9.1061,70.5891,8.7087Q70.799,8.3114,70.799,7.8614999999999995Q70.799,7.2468,70.4016,6.83441Q70.0043,6.42206,69.4045,6.42206Q68.7448,6.42206,68.2499,6.886889999999999Q67.7551,7.351699999999999,67.7551,7.996499999999999Q67.7551,8.3863,67.9725,8.7612Q68.19,9.1361,68.5423,9.361Q68.8947,9.5859,69.2696,9.5859ZM79.2409,3.84302Q80.6503,3.9029999999999996,81.475,4.9601Q82.2997,6.01721,82.2997,7.6516Q82.2997,8.8062,81.8724,9.7733Q81.4451,10.7405,80.6653,11.3028Q79.8856,11.8651,78.851,11.8651Q77.7414,11.8651,77.0067,11.4602L77.1416,15.5837L74.17269999999999,15.5837L74.17269999999999,3.99296L76.6168,4.00796L76.7218,4.80266Q77.2466,4.36782,77.9513,4.09792Q78.6561,3.8280200000000004,79.2409,3.84302ZM78.5511,9.421Q79.1509,9.421,79.5183,9.0311Q79.8856,8.6412,79.8856,7.9665Q79.8856,7.261799999999999,79.4808,6.83441Q79.0759,6.407069999999999,78.4162,6.407069999999999Q77.7714,6.407069999999999,77.3441,6.811920000000001Q76.91669999999999,7.216799999999999,76.91669999999999,7.8315Q76.91669999999999,8.4763,77.404,8.9486Q77.8914,9.421,78.5511,9.421Z" fill="#FEB62C" fill-opacity="1"/></g></g></svg>