<svg xmlns="http://www.w3.org/2000/svg" xmlns:xlink="http://www.w3.org/1999/xlink" fill="none" version="1.1" width="99" height="16" viewBox="0 0 99 16"><defs><clipPath id="master_svg0_1476_6845"><rect x="0" y="0" width="99" height="16" rx="0"/></clipPath></defs><g clip-path="url(#master_svg0_1476_6845)"><g><path d="M16.198700000000002,9.9092Q16.198700000000002,10.4731,16.0559,10.9236Q15.9131,11.374,15.6787,11.7183Q15.4443,12.0625,15.1294,12.3042Q14.81445,12.5459,14.47754,12.6997Q14.14062,12.8535,13.79272,12.9268Q13.44482,13,13.13721,13L5.791016,13L5.791016,11.0957L13.13721,11.0957Q13.68652,11.0957,13.99048,10.7734Q14.29443,10.4512,14.29443,9.9092Q14.29443,9.6455,14.21387,9.4258Q14.1333,9.2061,13.98315,9.0449Q13.83301,8.8838,13.61694,8.7959Q13.40088,8.708,13.13721,8.708L8.75732,8.708Q8.2959,8.708,7.761229999999999,8.5432Q7.22656,8.3784,6.7688,8.0122Q6.31104,7.646000000000001,6.00708,7.05273Q5.703125,6.45947,5.703125,5.60254Q5.703125,4.74561,6.00708,4.15601Q6.31104,3.5664100000000003,6.7688,3.19653Q7.22656,2.8266600000000004,7.761229999999999,2.6618700000000004Q8.2959,2.49707,8.75732,2.49707L15.2393,2.49707L15.2393,4.40137L8.75732,4.40137Q8.21533,4.40137,7.911379999999999,4.73096Q7.607419999999999,5.06055,7.607419999999999,5.60254Q7.607419999999999,6.151859999999999,7.911379999999999,6.470459999999999Q8.21533,6.789059999999999,8.75732,6.789059999999999L13.13721,6.789059999999999L13.15186,6.789059999999999Q13.45947,6.796390000000001,13.80371,6.873290000000001Q14.14795,6.950200000000001,14.48853,7.111330000000001Q14.8291,7.272460000000001,15.1367,7.51782Q15.4443,7.76318,15.6824,8.1074Q15.9204,8.4517,16.0596,8.8984Q16.198700000000002,9.3452,16.198700000000002,9.9092ZM24.4312,6.98682L21.106,6.98682L21.106,13L19.1797,13L19.1797,6.98682L16.7041,6.98682L16.7041,5.08252L19.1797,5.08252L19.1797,2.49707L21.106,2.49707L21.106,5.08252L24.4312,5.08252L24.4312,6.98682ZM34.2676,10.3267Q34.2676,10.8174,34.143100000000004,11.2092Q34.0186,11.6011,33.813500000000005,11.8977Q33.6084,12.1943,33.3374,12.4031Q33.0664,12.6118,32.769800000000004,12.7437Q32.4731,12.8755,32.169200000000004,12.9377Q31.8652,13,31.5942,13L28.1592,13Q27.7637,13,27.2949,12.8608Q26.8262,12.7217,26.427,12.4031Q26.0278,12.0845,25.7605,11.5754Q25.4932,11.0664,25.4932,10.3267L25.4932,7.74854Q25.4932,7.016109999999999,25.7605,6.50708Q26.0278,5.99805,26.427,5.67944Q26.8262,5.36084,27.2949,5.22168Q27.7637,5.08252,28.1592,5.08252L31.5942,5.08252Q32.3267,5.08252,32.8394,5.34619Q33.3521,5.60986,33.667,6.009029999999999Q33.981899999999996,6.408200000000001,34.1248,6.876950000000001Q34.2676,7.345700000000001,34.2676,7.74854L34.2676,10.3267ZM32.363299999999995,7.76318Q32.363299999999995,7.36768,32.1655,7.177250000000001Q31.9678,6.98682,31.5942,6.98682L28.1738,6.98682Q27.793,6.98682,27.5952,7.180910000000001Q27.3975,7.375,27.3975,7.74854L27.3975,10.3267Q27.3975,10.7002,27.5952,10.8979Q27.793,11.0957,28.1738,11.0957L31.5942,11.0957Q31.9824,11.0957,32.1729,10.8979Q32.363299999999995,10.7002,32.363299999999995,10.3267L32.363299999999995,7.76318ZM42.8149,6.98682L38.5303,6.98682Q38.1421,6.98682,37.9443,7.180910000000001Q37.7466,7.375,37.7466,7.74854L37.7466,13L35.8423,13L35.8423,7.74854Q35.8423,7.257809999999999,35.9668,6.869630000000001Q36.091300000000004,6.481450000000001,36.3,6.184810000000001Q36.5088,5.88818,36.7798,5.67944Q37.0508,5.4707,37.3474,5.33887Q37.644,5.20703,37.948,5.14478Q38.252,5.08252,38.5156,5.08252L42.8149,5.08252L42.8149,6.98682ZM52.7979,13.7617Q52.7979,14.252400000000002,52.6733,14.644300000000001Q52.5488,15.036100000000001,52.3438,15.332799999999999Q52.1387,15.6294,51.8677,15.8381Q51.5967,16.0469,51.3,16.1787Q51.0034,16.3105,50.7031,16.3728Q50.4028,16.4351,50.1318,16.4351L46.6968,16.4351L46.6968,14.5308L50.1318,14.5308Q50.5127,14.5308,50.7031,14.332999999999998Q50.8936,14.1353,50.8936,13.7617L50.8936,5.08252L52.7979,5.08252L52.7979,13.7617ZM50.1318,13L46.6968,13Q46.2866,13,45.8215,12.8608Q45.3564,12.7217,44.9536,12.4031Q44.5508,12.0845,44.2871,11.5754Q44.0234,11.0664,44.0234,10.3267L44.0234,5.08252L45.9277,5.08252L45.9277,10.3267Q45.9277,10.7002,46.1255,10.8979Q46.3232,11.0957,46.7114,11.0957L50.1318,11.0957L50.1318,13ZM64.9194,9.9092Q64.9194,10.4731,64.7766,10.9236Q64.63380000000001,11.374,64.3994,11.7183Q64.16499999999999,12.0625,63.8501,12.3042Q63.5352,12.5459,63.1982,12.6997Q62.8613,12.8535,62.5134,12.9268Q62.1655,13,61.8579,13L54.5117,13L54.5117,11.0957L61.8579,11.0957Q62.4072,11.0957,62.7112,10.7734Q63.0151,10.4512,63.0151,9.9092Q63.0151,9.6455,62.9346,9.4258Q62.854,9.2061,62.7039,9.0449Q62.5537,8.8838,62.3376,8.7959Q62.1216,8.708,61.8579,8.708L57.478,8.708Q57.0166,8.708,56.4819,8.5432Q55.9473,8.3784,55.4895,8.0122Q55.0317,7.646000000000001,54.7278,7.05273Q54.4238,6.45947,54.4238,5.60254Q54.4238,4.74561,54.7278,4.15601Q55.0317,3.5664100000000003,55.4895,3.19653Q55.9473,2.8266600000000004,56.4819,2.6618700000000004Q57.0166,2.49707,57.478,2.49707L63.96,2.49707L63.96,4.40137L57.478,4.40137Q56.936,4.40137,56.6321,4.73096Q56.3281,5.06055,56.3281,5.60254Q56.3281,6.151859999999999,56.6321,6.470459999999999Q56.936,6.789059999999999,57.478,6.789059999999999L61.8579,6.789059999999999L61.8726,6.789059999999999Q62.1802,6.796390000000001,62.5244,6.873290000000001Q62.8687,6.950200000000001,63.2092,7.111330000000001Q63.5498,7.272460000000001,63.8574,7.51782Q64.16499999999999,7.76318,64.4031,8.1074Q64.6411,8.4517,64.7803,8.8984Q64.9194,9.3452,64.9194,9.9092ZM79.3262,5.08252Q78.8721,6.10059,78.3447,7.08569Q77.8174,8.0708,77.2424,8.9497Q76.6675,9.8286,76.0669,10.572Q75.4663,11.3154,74.8767,11.8538Q74.2871,12.3921,73.7268,12.696Q73.1665,13,72.6685,13Q72.4634,13,72.2876,12.9268Q72.1118,12.8535,71.98,12.7253Q71.8481,12.5972,71.7749,12.4214Q71.7017,12.2456,71.7017,12.0405L71.7017,8.4883L67.92240000000001,12.7144Q67.77590000000001,12.8608,67.6038,12.9304Q67.4316,13,67.2485,13Q67.05080000000001,13,66.87870000000001,12.9268Q66.7065,12.8535,66.5747,12.7253Q66.44290000000001,12.5972,66.366,12.4214Q66.28909999999999,12.2456,66.28909999999999,12.0405L66.28909999999999,5.08252L68.1934,5.08252L68.1934,9.5942L71.9873,5.35352Q72.1924,5.14844,72.4744,5.09351Q72.7563,5.03857,73.0273,5.15576Q73.2983,5.26562,73.4558,5.50366Q73.6133,5.7417,73.6133,6.027340000000001L73.6133,10.5537Q74.2285,9.9604,74.7266,9.3013Q75.2246,8.6421,75.6531,7.942629999999999Q76.0815,7.24316,76.4587,6.52173Q76.8359,5.80029,77.1948,5.08252L79.3262,5.08252ZM87.8369,10.3779Q87.8369,10.7734,87.6978,11.2312Q87.5586,11.689,87.2473,12.0808Q86.936,12.4727,86.4343,12.7363Q85.9326,13,85.2148,13L81.7798,13Q81.3843,13,80.9265,12.8608Q80.4688,12.7217,80.0769,12.4104Q79.6851,12.0991,79.4214,11.5974Q79.1577,11.0957,79.1577,10.3779Q79.1577,9.9824,79.2969,9.521Q79.436,9.0596,79.7473,8.6677Q80.0586,8.2759,80.5603,8.0122Q81.062,7.74854,81.7798,7.74854L85.2148,7.74854L85.2148,9.5649L81.7798,9.5649Q81.3916,9.5649,81.1792,9.803Q80.9668,10.041,80.9668,10.3926Q80.9668,10.7661,81.2122,10.9749Q81.4575,11.1836,81.7944,11.1836L85.2148,11.1836Q85.603,11.1836,85.8154,10.9492Q86.0278,10.7148,86.0278,10.3633L86.0278,7.70459Q86.0278,7.331049999999999,85.7971,7.111330000000001Q85.5664,6.8916,85.2148,6.8916L81.0327,6.8916L81.0327,5.08252L85.2148,5.08252Q85.6104,5.08252,86.0681,5.22168Q86.5259,5.36084,86.9177,5.67212Q87.3096,5.9834,87.5732,6.485110000000001Q87.8369,6.98682,87.8369,7.70459L87.8369,10.3779ZM98.1934,10.3267Q98.1934,10.8174,98.0688,11.2092Q97.9443,11.6011,97.7393,11.8977Q97.5342,12.1943,97.2632,12.4031Q96.9922,12.6118,96.6956,12.7437Q96.3989,12.8755,96.0986,12.9377Q95.7983,13,95.5273,13L92.0923,13L92.0923,11.0957L95.5273,11.0957Q95.9082,11.0957,96.0986,10.8979Q96.2891,10.7002,96.2891,10.3267L96.2891,7.76318Q96.2891,7.36768,96.095,7.177250000000001Q95.9009,6.98682,95.5273,6.98682L92.1069,6.98682Q91.7188,6.98682,91.521,7.180910000000001Q91.3232,7.375,91.3232,7.74854L91.3232,15.4756L89.4189,15.4756L89.4189,7.74854Q89.4189,7.257809999999999,89.5435,6.869630000000001Q89.668,6.481450000000001,89.8767,6.184810000000001Q90.0854,5.88818,90.3564,5.67944Q90.6274,5.4707,90.9241,5.33887Q91.2207,5.20703,91.5247,5.14478Q91.8286,5.08252,92.0923,5.08252L95.5273,5.08252Q96.0181,5.08252,96.4062,5.20703Q96.7944,5.33154,97.0911,5.53662Q97.3877,5.7417,97.5964,6.012700000000001Q97.8052,6.28369,97.937,6.58032Q98.0688,6.876950000000001,98.1311,7.177250000000001Q98.1934,7.477539999999999,98.1934,7.74854L98.1934,10.3267Z" fill="#2130ED" fill-opacity="1"/></g></g></svg>